<svg version="1.1" xmlns="http://www.w3.org/2000/svg" viewBox="0 0 1024 1024">
  <style>
    .logo-path { fill: #000000; }
    @media (prefers-color-scheme: dark) {
      .logo-path { fill: #fbbf24; }
    }
    .outer-ring {
      transform-origin: center;
      animation: pulse 3s ease-in-out infinite;
    }
    @keyframes pulse {
      0%, 100% { opacity: 1; }
      50% { opacity: 0.85; }
    }
  </style>
  <path class="logo-path outer-ring" d="M926.090454,616.859680 C908.911072,681.996887 878.636841,739.872498 834.363342,790.051819 C770.078613,862.911560 690.204895,909.240112 594.762146,928.340576 C561.805237,934.936096 528.475098,937.702393 494.946899,936.033630 C392.221436,930.920654 302.115997,894.521240 225.605530,825.520447 C169.973709,775.349060 130.617996,714.367310 106.891243,643.360168 C95.833588,610.267883 89.041618,576.302734 86.507256,541.425720 C85.079987,521.784119 84.569771,502.176361 85.881638,482.574066 C89.944908,421.859009 105.293777,364.169983 134.110779,310.436005 C187.666031,210.573578 268.099762,141.852600 375.026337,104.337051 C403.998810,94.171967 433.880615,87.705238 464.454529,84.568192 C579.558777,72.757896 683.604004,101.331909 775.060486,172.172409 C851.901001,231.691681 902.107361,309.443176 926.583923,403.626404 C933.127014,428.803558 937.103699,454.417236 938.681702,480.371521 C941.477783,526.359619 937.875244,571.787659 926.090454,616.859680 M797.098755,292.371277 C790.599548,283.910980 783.865051,275.650452 776.577454,267.846893 C708.351746,194.789795 624.234070,155.984909 524.458496,151.472916 C496.950317,150.228928 469.573151,152.637619 442.544373,158.231155 C354.413361,176.469650 282.513092,221.189545 228.009155,292.569580 C176.586151,359.914703 152.431473,436.504303 155.177353,521.465759 C156.057983,548.713989 159.813797,575.472595 166.967239,601.693848 C188.301605,679.895630 231.231873,743.867310 295.436249,793.226624 C354.456390,838.600342 421.609131,862.726562 495.861267,866.491394 C533.823425,868.416138 571.296448,864.160767 607.957275,853.760193 C687.014404,831.331665 751.267273,787.186462 800.170410,721.239014 C840.812439,666.432190 863.765381,604.760071 868.943054,536.601440 C871.145874,507.602386 870.279663,478.692932 865.427673,450.022766 C855.634644,392.156036 832.954529,339.772430 797.098755,292.371277z"/>
  <path class="logo-path" d="M376.003296,290.771545 C408.494354,290.766907 440.487518,290.586945 472.475983,290.894775 C479.388000,290.961273 483.432678,288.204346 486.190247,282.369415 C487.017670,280.618622 487.518402,278.573914 489.576721,277.318024 C491.316895,278.608856 490.963684,280.506378 490.923401,282.211792 C489.667542,335.353058 490.576965,388.501556 490.449951,441.646179 C490.419800,454.258270 497.685364,464.220764 507.520660,466.582672 C522.142090,470.093903 534.380249,460.114685 534.608337,444.159088 C534.825073,428.998932 534.638489,413.833252 534.691040,398.670166 C534.697144,396.911774 534.169861,395.041473 535.629639,392.785767 C547.715088,424.175507 569.741150,443.189606 603.533508,443.280457 C637.103638,443.370697 659.490784,425.087585 671.479797,393.968872 C673.867126,394.634521 673.096375,396.442322 673.096436,397.714691 C673.099854,453.867950 673.232422,510.022186 672.934448,566.174072 C672.789734,593.457031 669.581543,620.394470 658.770630,645.782166 C636.668762,697.684753 597.172974,729.447510 543.350525,744.181274 C521.234863,750.235474 498.664917,753.241577 475.705139,752.228455 C447.086761,750.965637 419.222015,745.484131 392.406708,735.433960 C377.922424,730.005371 377.441803,723.716370 377.554596,713.687317 C377.871399,685.530518 377.715942,657.367981 377.665710,629.207825 C377.656158,623.865845 378.111969,618.600586 379.042511,613.363647 C381.142029,611.905457 382.941223,613.355042 384.764801,613.847412 C400.985657,618.226990 416.934296,623.688599 433.416504,627.008179 C461.029755,632.569763 487.774506,630.276611 512.842651,616.440369 C523.430237,610.596680 530.794250,601.725159 535.518982,590.646606 C536.482971,588.386169 537.468567,586.084045 537.077209,583.187195 C532.668335,584.231750 529.157227,586.759094 525.486572,588.892395 C476.047821,617.625488 412.986176,606.552063 377.835297,562.662720 C361.493622,542.258545 353.331848,518.835205 352.581421,492.578064 C350.791168,429.936340 352.286835,367.288544 351.788086,304.646210 C351.705353,294.256073 355.236938,290.761414 365.506470,290.724701 C368.838776,290.712769 372.171326,290.754059 376.003296,290.771545z"/>
  <path class="logo-path" d="M650.392212,283.576508 C680.530884,313.032379 681.033630,357.965149 651.080872,385.539734 C630.941589,404.079956 607.002991,409.355591 581.064026,400.221710 C555.391724,391.181702 540.124084,372.525848 535.601135,345.555267 C530.560913,315.500519 545.920227,287.677490 570.088379,274.358612 C595.982666,260.088531 626.573547,263.486908 650.392212,283.576508z"/>
</svg>
